<?xml version="1.0" encoding="UTF-8"?>
<svg id="Layer_1" data-name="Layer 1" xmlns="http://www.w3.org/2000/svg" viewBox="0 0 1447.19 380.38">
  <defs>
    <style>
      .cls-1, .cls-2, .cls-3 {
        fill: #bf1010;
      }

      .cls-4 {
        fill: #f7f2f2;
      }

      .cls-2 {
        letter-spacing: .1em;
      }

      .cls-2, .cls-3 {
        font-family: OpenSans-Regular, 'Open Sans';
        font-size: 151.45px;
        isolation: isolate;
      }

      .cls-3 {
        letter-spacing: .45em;
      }
    </style>
  </defs>
  <circle class="cls-1" cx="188.5" cy="188.5" r="188.5"/>
  <path class="cls-4" d="M204.42,42.32c-2.66,0-5.34.08-7.98.21-2.64.12-5.3.41-7.93.62-5.22.48-10.41,1.23-15.55,2.26-5.07.92-10.07,2.16-14.97,3.72-2.42.79-4.82,1.62-7.16,2.56-2.34.94-4.64,1.88-6.84,2.9-4.43,2.07-8.65,4.55-12.62,7.41-3.86,2.75-7.45,5.86-10.7,9.31-6.54,6.73-10.95,15.06-14.32,23.71l.81-4.11c.56,14.37.96,28.75,1.2,43.12.1,7.19.26,14.37.3,21.56l.11,21.56c0,14.37-.11,28.75-.38,43.12-.08,7.19-.3,14.37-.48,21.56-.18,7.19-.42,14.37-.68,21.56l-3.42-7.87c5,4.94,9.86,10.02,14.76,15.06l14.67,15.14c4.87,5.08,9.58,10.28,14.43,15.41l7.2,7.72c2.4,2.57,4.72,5.23,7.09,7.84l-3.9-1.53,11.63,1.04c3.89.3,7.76.78,11.63,1.18,3.87.4,7.76.79,11.63,1.29,3.87.49,7.76.94,11.63,1.52v1.37l-46.54.29h-.37l-.29-.26-61.75-57.33-.37-.36v-.52l-.18-86.24.19-86.24v-.23l.08-.22c4.15-10.06,10.36-19.13,18.23-26.64.99-.93,1.96-1.88,3.04-2.74s2.07-1.74,3.15-2.56l3.31-2.35c1.1-.79,2.29-1.45,3.42-2.18,4.63-2.8,9.5-5.17,14.56-7.08,10.12-3.74,20.72-6.04,31.48-6.84,10.72-.92,21.5-.64,32.15.86l-.3,1.41Z"/>
  <polygon class="cls-4" points="126.51 141.56 275.71 141.56 210 180.64 208.64 259.28 183.02 259.28 182.63 151.14 126.51 141.56"/>
  <polygon class="cls-4" points="260.65 259.28 209.37 192.25 209.37 218.24 244.22 259.28 260.65 259.28"/>
  <g>
    <text class="cls-3" transform="translate(454.65 157.59)"><tspan x="0" y="0">CAPITAL</tspan></text>
    <text class="cls-2" transform="translate(446.65 339.34)"><tspan x="0" y="0">RECRUITERS</tspan></text>
  </g>
</svg>